<svg width="29" height="29" viewBox="0 0 29 29" fill="none" xmlns="http://www.w3.org/2000/svg">
<circle cx="14.5" cy="14.5" r="8.5" fill="white"/>
<path d="M25.4519 9.71637C25.4835 9.47712 25.5 9.23787 25.5 9C25.5 5.72888 22.5534 3.104 19.2836 3.54812C18.3308 1.85275 16.5157 0.75 14.5 0.75C12.4843 0.75 10.6692 1.85275 9.71637 3.54812C6.43975 3.104 3.5 5.72888 3.5 9C3.5 9.23787 3.5165 9.47712 3.54812 9.71637C1.85275 10.6706 0.75 12.4856 0.75 14.5C0.75 16.5144 1.85275 18.3294 3.54812 19.2836C3.5164 19.5211 3.50033 19.7604 3.5 20C3.5 23.2711 6.43975 25.8891 9.71637 25.4519C10.6692 27.1473 12.4843 28.25 14.5 28.25C16.5157 28.25 18.3308 27.1473 19.2836 25.4519C22.5534 25.8891 25.5 23.2711 25.5 20C25.5 19.7621 25.4835 19.5229 25.4519 19.2836C27.1473 18.3294 28.25 16.5144 28.25 14.5C28.25 12.4856 27.1473 10.6706 25.4519 9.71637ZM13.0631 20.572L8.021 15.4652L9.979 13.5348L13.0824 16.678L19.032 10.7737L20.968 12.7263L13.0631 20.572V20.572Z" fill="#0094FF"/>
</svg>
